<svg width="160" height="48" viewBox="0 0 160 48" fill="none" xmlns="http://www.w3.org/2000/svg">
<g clip-path="url(#clip0_279_557)">
<rect opacity="0.01" width="160" height="48" fill="#FF963C"/>
<rect opacity="0.01" x="8" y="8" width="32" height="32" fill="#FF963C"/>
<path d="M37.5491 18.6651L36.5569 17.674C35.9562 17.0721 34.9812 17.0733 34.3793 17.674L33.452 18.6025L36.6208 21.7712L37.5491 20.8438C38.1499 20.242 38.1499 19.267 37.5491 18.6651H37.5491Z" fill="#FF963C"/>
<path d="M24.76 27.2868V30.4561H27.9294L35.7571 22.6284L32.5879 19.459L24.76 27.2868Z" fill="#FF963C"/>
<rect x="17.3472" y="17.9343" width="8.9516" height="1.49193" fill="#FF963C"/>
<rect x="17.3472" y="23.3984" width="8.9516" height="1.49193" fill="#FF963C"/>
<rect x="17.3663" y="28.8625" width="5.47042" height="1.49193" fill="#FF963C"/>
<path d="M30.5858 34.5985C30.5858 34.826 30.4027 35.0117 30.1775 35.0129H13.3666C13.1415 35.0117 12.9596 34.826 12.9584 34.5985V13.4026C12.9596 13.1741 13.1415 12.9883 13.3666 12.9872H30.1775C30.4027 12.9883 30.5858 13.1741 30.5858 13.4026V19.3897L32.5441 17.4025V13.4026C32.543 12.0759 31.4861 11.0011 30.1775 11H13.3666C12.0593 11.0011 11.0015 12.0759 11 13.4026V34.5985C11.0015 35.9252 12.0593 36.9989 13.3666 37H30.1775C31.4861 36.9989 32.543 36.7748 32.5441 35.4482V27.9488L30.5858 29.9359V34.5985Z" fill="#FF963C"/>
<path d="M52.544 18.752C51.68 18.752 51.2 18.736 50.656 18.672C50.72 19.232 50.736 19.712 50.736 20.656V29.152C50.736 30.064 50.704 30.56 50.64 31.024H51.744V30.08H60.192V31.024H61.312C61.232 30.576 61.216 30.144 61.216 29.168V20.656C61.216 19.664 61.232 19.2 61.296 18.672C60.736 18.736 60.256 18.752 59.36 18.752H55.504C55.824 18.16 56.08 17.584 56.416 16.72L55.264 16.512C55.056 17.36 54.832 17.952 54.4 18.752H52.544ZM51.744 19.696H60.208V22.144H51.744V19.696ZM51.744 23.072H60.208V25.6H51.744V23.072ZM51.744 26.528H60.208V29.136H51.744V26.528ZM70.272 23.408C70.16 24.816 69.936 25.696 69.408 26.704C68.64 28.16 67.424 29.216 65.376 30.208C65.712 30.528 65.872 30.736 66.08 31.104C68.032 30.096 69.28 29.008 70.112 27.616C70.848 26.368 71.216 25.168 71.36 23.408H75.088C75.088 26.176 74.896 28.352 74.56 29.328C74.448 29.632 74.272 29.728 73.76 29.728C73.184 29.728 72.384 29.632 71.504 29.456C71.664 29.92 71.712 30.16 71.76 30.592C72.768 30.688 73.328 30.72 73.856 30.72C74.784 30.72 75.168 30.56 75.44 30.08C75.856 29.328 76.16 26.624 76.16 23.52C76.176 22.8 76.176 22.672 76.224 22.384C75.76 22.448 75.28 22.464 74.544 22.464H69.28C68.624 22.464 68.08 22.432 67.616 22.368V23.504C68.112 23.44 68.656 23.408 69.264 23.408H70.272ZM69.616 16.768C69.536 17.248 69.328 17.744 68.928 18.448C67.856 20.368 66.48 21.84 64.544 23.136C64.912 23.44 65.12 23.68 65.328 24C67.584 22.336 69.136 20.48 70.368 18C70.608 17.504 70.672 17.376 70.816 17.184L69.616 16.768ZM73.168 17.216C73.248 17.344 73.344 17.52 73.424 17.664C74.928 20.608 76.288 22.224 78.816 24.096C79.056 23.68 79.264 23.408 79.568 23.12C77.376 21.68 76.016 20.24 74.848 18.144C74.512 17.536 74.368 17.216 74.24 16.8L73.168 17.216ZM88.864 19.392C89.664 19.424 90.128 19.536 90.72 19.792C92.336 20.512 93.264 21.984 93.264 23.808C93.264 25.776 92.192 27.488 90.432 28.288C89.68 28.64 88.928 28.848 87.76 29.04C88.064 29.424 88.16 29.584 88.32 30.112C89.424 29.872 90.032 29.68 90.752 29.376C93.072 28.384 94.416 26.336 94.416 23.856C94.416 22.32 93.872 20.928 92.864 19.952C91.824 18.928 90.256 18.368 88.464 18.368C86.32 18.368 84.576 19.088 83.296 20.496C82.224 21.696 81.616 23.28 81.616 24.912C81.616 27.152 82.752 28.816 84.272 28.816C85.424 28.816 86.368 27.856 87.296 25.744C88.016 24.064 88.624 21.616 88.864 19.392ZM87.712 19.408C87.504 21.456 86.912 23.824 86.256 25.328C85.568 26.896 84.928 27.648 84.256 27.648C83.392 27.648 82.72 26.464 82.72 24.928C82.72 22.944 83.712 21.136 85.328 20.16C86.064 19.712 86.752 19.488 87.712 19.408ZM97.52 18.272C97.904 18.224 98.224 18.208 98.736 18.208H101.248C101.76 18.208 102.112 18.224 102.464 18.272V17.264C102.064 17.328 101.824 17.344 101.248 17.344H98.736C98.16 17.344 97.904 17.328 97.52 17.264V18.272ZM96.96 20.528C97.344 20.48 97.68 20.464 98.24 20.464H101.936C102.512 20.464 102.784 20.48 103.104 20.528V19.488C102.768 19.552 102.48 19.568 101.824 19.568H98.24C97.632 19.568 97.328 19.552 96.96 19.488V20.528ZM97.584 22.768C97.92 22.72 98.208 22.704 98.736 22.704H101.392C101.904 22.704 102.144 22.72 102.528 22.768V21.776C102.224 21.824 101.936 21.84 101.392 21.84H98.736C98.176 21.84 97.92 21.824 97.584 21.776V22.768ZM97.584 24.96C97.92 24.912 98.224 24.896 98.736 24.896H101.392C101.904 24.896 102.096 24.912 102.528 24.96V23.968C102.208 24.016 101.952 24.032 101.392 24.032H98.736C98.176 24.032 97.92 24.016 97.584 23.968V24.96ZM98.704 31.264V30.256H101.584V31.056H102.576C102.528 30.672 102.496 30.24 102.496 29.792V27.488C102.496 26.896 102.512 26.592 102.544 26.24C102.256 26.288 102.08 26.288 101.392 26.288H98.96C98.464 26.288 98.096 26.272 97.68 26.224C97.744 26.64 97.76 27.008 97.76 27.552V29.712C97.76 30.368 97.728 30.8 97.664 31.264H98.704ZM98.688 27.104H101.584V29.424H98.688V27.104ZM104.896 23.408H108.832C109.504 23.408 109.904 23.424 110.4 23.472C110.352 23.04 110.336 22.624 110.336 21.984V18.944C110.336 18.064 110.352 17.792 110.384 17.376C109.92 17.424 109.536 17.44 108.864 17.44H104.992C104.432 17.44 103.968 17.408 103.52 17.344V18.464C103.952 18.4 104.336 18.384 104.992 18.384H109.328V22.496H105.312C104.656 22.496 104.224 22.48 103.76 22.432C103.824 22.88 103.84 23.216 103.84 23.968V29.344C103.84 30.064 104.016 30.336 104.512 30.496C104.992 30.624 105.76 30.688 107.136 30.688C109.36 30.688 110.144 30.544 110.528 30.032C110.864 29.6 111.056 28.784 111.232 27.232C110.912 27.152 110.512 26.96 110.16 26.752C110.08 28.272 109.92 29.088 109.68 29.344C109.376 29.632 108.848 29.712 107.184 29.712C106.272 29.712 105.584 29.68 105.312 29.616C104.976 29.536 104.896 29.44 104.896 29.12V23.408ZM122.32 29.84C122.32 30.16 122.192 30.24 121.648 30.24C121.232 30.24 120.72 30.192 120.144 30.096C120.256 30.432 120.32 30.688 120.352 31.104C121.024 31.152 121.504 31.168 121.84 31.168C122.912 31.168 123.248 30.88 123.248 29.968V27.552C123.248 26.656 123.216 26.048 123.152 24.592C123.552 25.952 123.808 26.544 124.352 27.424C125.104 28.624 125.84 29.408 127.008 30.272C127.216 29.904 127.424 29.632 127.696 29.392C126.416 28.576 125.6 27.776 124.8 26.56C125.504 25.904 126.128 25.2 126.992 24.048L126.16 23.488C125.632 24.4 125.136 25.056 124.368 25.808C123.808 24.768 123.568 24.08 123.264 22.784V22.736H125.856C126.528 22.736 126.928 22.752 127.344 22.816V21.792C126.912 21.856 126.48 21.888 125.84 21.888H125.488C125.6 20.512 125.648 19.776 125.696 18.944C125.776 17.632 125.776 17.632 125.84 17.28C125.392 17.328 124.976 17.344 124.288 17.344H120.832C120.128 17.344 119.744 17.328 119.312 17.264V18.272C119.728 18.208 120.144 18.192 120.832 18.192H124.8C124.768 18.96 124.752 19.12 124.736 19.6H121.136C120.464 19.6 120.144 19.584 119.76 19.52V20.496C120.192 20.432 120.496 20.416 121.136 20.416H124.672C124.624 21.088 124.624 21.12 124.544 21.888H120.048C119.44 21.888 119.008 21.856 118.592 21.792V22.816C118.976 22.752 119.376 22.736 120.048 22.736H122.32V26.4C121.024 27.424 119.584 28.352 118.512 28.816L118.48 28.08C117.6 28.432 117.28 28.544 116.576 28.768V24.096H117.248C117.872 24.096 118.256 24.112 118.656 24.176V23.168C118.24 23.232 117.872 23.248 117.248 23.248H116.576V21.584H117.12C117.584 21.584 117.84 21.6 118.192 21.648V20.704C117.872 20.752 117.584 20.768 117.12 20.768H115.152C114.72 20.768 114.368 20.752 114.096 20.704C115.056 19.728 115.616 18.896 116.208 17.664C116.88 18.96 117.344 19.6 118.464 20.656C118.656 20.304 118.784 20.128 119.04 19.824C117.952 18.976 117.344 18.208 116.72 16.88H115.584C115.04 18.384 114.08 19.648 112.704 20.688C113.024 20.992 113.056 21.04 113.28 21.472C113.664 21.136 113.808 21.008 114.08 20.736V21.648C114.448 21.6 114.736 21.584 115.12 21.584H115.664V23.248H114.576C113.904 23.248 113.488 23.232 113.072 23.168V24.176C113.52 24.112 113.92 24.096 114.56 24.096H115.664V29.024C114.416 29.36 113.648 29.52 112.976 29.552L113.184 30.624C113.456 30.528 113.632 30.48 114.144 30.352C116.016 29.872 116.96 29.568 118.528 28.96L118.944 29.76C119.152 29.632 119.152 29.632 119.424 29.456C120.72 28.624 120.72 28.624 121.008 28.416C121.456 28.096 121.776 27.856 122.32 27.424V29.84ZM114.912 28.192C114.688 26.816 114.512 26.064 114.16 24.944L113.376 25.2C113.76 26.448 113.904 27.104 114.08 28.48L114.912 28.192ZM117.856 27.808C118.208 26.832 118.4 26.144 118.624 25.072L117.824 24.768C117.696 25.856 117.52 26.544 117.136 27.552L117.856 27.808ZM119.264 23.872C119.904 24.832 120.208 25.44 120.608 26.496L121.392 26C120.992 25.088 120.72 24.592 120.032 23.504L119.264 23.872Z" fill="white"/>
</g>
<defs>
<clipPath id="clip0_279_557">
<rect width="160" height="48" fill="white"/>
</clipPath>
</defs>
</svg>
