<svg width="160" height="48" viewBox="0 0 160 48" fill="none" xmlns="http://www.w3.org/2000/svg">
<rect opacity="0.01" width="160" height="48" fill="#FF963C"/>
<rect opacity="0.15" x="8" y="8" width="32" height="32" fill="#FF963C"/>
<path d="M60.688 23.056C61.52 23.056 61.984 23.072 62.528 23.136V21.952C61.968 22.032 61.584 22.048 60.672 22.048H51.312C50.4 22.048 50.016 22.032 49.456 21.952V23.136C50 23.072 50.464 23.056 51.296 23.056H55.632C55.6 24.304 55.36 25.568 54.992 26.368C54.336 27.824 53.04 28.848 50.944 29.52C51.344 29.904 51.472 30.08 51.696 30.56C53.008 30.032 53.808 29.584 54.512 28.976C55.728 27.952 56.4 26.64 56.672 24.752C56.768 24.128 56.832 23.536 56.848 23.056H60.688ZM51.072 19.2C51.552 19.136 51.968 19.12 52.896 19.12H59.152C60.08 19.12 60.496 19.136 60.976 19.2V17.984C60.448 18.08 60.128 18.096 59.136 18.096H52.912C51.92 18.096 51.6 18.08 51.072 17.984V19.2ZM70.8 20.416L67.536 20.928C66.816 21.04 66.4 21.072 65.872 21.088L66.096 22.304C66.512 22.176 67.04 22.064 67.696 21.952L70.992 21.44L71.568 24.672L67.312 25.36C66.656 25.472 66.256 25.504 65.728 25.504L65.936 26.72C66.464 26.56 66.56 26.544 67.472 26.4L71.76 25.712L72.416 29.296C72.528 30 72.592 30.4 72.608 30.832L73.888 30.592C73.728 30.096 73.68 29.904 73.536 29.072L72.88 25.536L76.896 24.896C77.008 24.88 77.088 24.864 77.264 24.832C77.536 24.784 77.696 24.752 77.76 24.752C78.048 24.704 78.144 24.688 78.464 24.672L78.24 23.488C77.84 23.632 77.376 23.728 76.656 23.856L72.688 24.496L72.08 21.264L75.712 20.704C76.704 20.544 76.704 20.544 77.136 20.496L76.912 19.344C76.544 19.472 76.208 19.552 75.504 19.664L71.888 20.224L71.568 18.464C71.44 17.792 71.408 17.488 71.392 17.104L70.128 17.312C70.288 17.696 70.368 18 70.48 18.672L70.8 20.416ZM93.4629 29.136C91.6389 27.2 90.2309 25.936 88.1349 24.336C89.1269 23.104 89.8789 21.84 90.7749 19.856C90.9509 19.456 91.0629 19.264 91.2229 19.072L90.5509 18.384C90.2789 18.48 90.0869 18.496 89.5269 18.512L83.8149 18.576C83.5909 18.576 83.4469 18.576 83.3989 18.576C82.8549 18.576 82.5669 18.56 82.1349 18.496L82.1669 19.792C82.6309 19.712 83.0949 19.68 83.8149 19.664L89.1589 19.584C89.3509 19.584 89.3989 19.584 89.5429 19.568C89.5269 19.616 89.5269 19.632 89.4949 19.68C89.4629 19.76 89.4469 19.776 89.4149 19.872C88.2469 22.672 86.2629 25.2 83.7029 27.088C82.4709 28 81.6869 28.432 80.4549 28.928C80.8549 29.328 80.9829 29.504 81.2389 29.984C82.4229 29.392 83.2709 28.864 84.3749 28.064C85.5269 27.216 86.3109 26.48 87.4309 25.2C89.4789 26.784 91.2869 28.528 92.5509 30.144L93.4629 29.136ZM101.159 30.496C101.095 30.048 101.079 29.696 101.079 28.8V23.984C101.079 23.584 101.063 23.36 101.015 23.04L101.047 23.024C101.191 23.136 101.303 23.2 101.543 23.296C103.799 24.224 106.007 25.408 107.511 26.464L108.199 25.28C105.399 23.664 103.543 22.784 101.079 21.904V18.912C101.079 18 101.095 17.664 101.159 17.248H99.7829C99.8469 17.648 99.8789 18.032 99.8789 18.88V28.816C99.8789 29.68 99.8469 30.064 99.7829 30.496H101.159Z" fill="white"/>
</svg>
